# AST/ASF file generated using VICON BodyLanguage
# -----------------------------------------------
:version 1.10
:name VICON
:units
  mass 1.0
  length 0.45
  angle deg
:documentation
   .ast/.asf automatically generated from VICON data using
   VICON BodyBuilder and BodyLanguage model FoxedUp or BRILLIANT.MOD
:root
   order TX TY TZ RX RY RZ
   axis XYZ
   position 0 0 0  
   orientation 0 0 0 
:bonedata
  begin
     id 1 
     name lhipjoint
     direction 0.577973 -0.728611 0.367523 
     length 2.48544 
     axis 0 0 0  XYZ
  end
  begin
     id 2 
     name lfemur
     direction 0.34202 -0.939693 0  
     length 7.1921  
     axis 0 0 20  XYZ
    dof rx ry rz
    limits (-160.0 20.0)
           (-70.0 70.0)
           (-60.0 70.0)
  end
  begin
     id 3 
     name ltibia
     direction 0.34202 -0.939693 0   
     length 7.71059   
     axis 0 0 20   XYZ
    dof rx
    limits (-10.0 170.0)
  end
  begin
     id 4 
     name lfoot
     direction 0.089538 -0.246004 0.965124   
     length 2.19909   
     axis -90 7.62852e-016 20   XYZ
    dof rx rz
    limits (-45.0 90.0)
           (-70.0 20.0)
  end
  begin
     id 5 
     name ltoes
     direction 1.53544e-011 -4.21829e-011 1   
     length 1.10116   
     axis -90 7.62852e-016 20   XYZ
    dof rx
    limits (-90.0 20.0)
  end
  begin
     id 6 
     name rhipjoint
     direction -0.554414 -0.743062 0.374812   
     length 2.4371  
     axis 0 0 0  XYZ 
  end
  begin
     id 7 
     name rfemur
     direction -0.34202 -0.939693 0   
     length 7.47254   
     axis 0 0 -20   XYZ
    dof rx ry rz
    limits (-160.0 20.0)
           (-70.0 70.0)
           (-70.0 60.0)
  end
  begin
     id 8 
     name rtibia
     direction -0.34202 -0.939693 0   
     length 7.65855   
     axis 0 0 -20   XYZ
    dof rx
    limits (-10.0 170.0)
 end
 begin
     id 9 
     name rfoot
     direction -0.133779 -0.367555 0.92033   
     length 2.43006  
     axis -90 -7.62852e-016 -20   XYZ
    dof rx rz
    limits (-45.0 90.0)
           (-20.0 70.0)
  end
  begin
     id 10 
     name rtoes
     direction -1.53563e-011 -4.21889e-011 1   
     length 1.19625   
     axis -90 -7.62852e-016 -20   XYZ
    dof rx
    limits (-90.0 20.0)
  end
  begin
     id 11 
     name lowerback
     direction 0.0249066 0.998043 -0.0573585   
     length 2.08485   
     axis 0 0 0   XYZ
    dof rx ry rz
    limits (-20.0 45.0)
           (-30.0 30.0)
           (-30.0 30.0)
  end
  begin
     id 12 
     name upperback
     direction 0.0237884 0.999673 0.00943178   
     length 2.08515   
     axis 0 0 0   XYZ
    dof rx ry rz
    limits (-20.0 45.0)
           (-30.0 30.0)
           (-30.0 30.0)
  end
  begin
     id 13 
     name thorax
     direction 0.0106671 0.999301 0.0358174   
     length 2.09037   
     axis 0 0 0   XYZ
    dof rx ry rz
    limits (-20.0 45.0)
           (-30.0 30.0)
           (-30.0 30.0)
  end
  begin
     id 14 
     name lowerneck
     direction -0.0580016 0.987052 0.149546   
     length 1.84454   
     axis 0 0 0   XYZ
    dof rx ry rz
    limits (-20.0 45.0)
           (-30.0 30.0)
           (-30.0 30.0)
  end
  begin
     id 15 
     name upperneck
     direction 0.079456 0.981963 -0.171567   
     length 1.88141   
     axis 0 0 0   XYZ
    dof rx ry rz
    limits (-20.0 45.0)
           (-30.0 30.0)
           (-30.0 30.0)
  end
  begin
     id 16
     name head
     direction 0.0262167 0.9967 -0.0768276  
     length 1.89541  
     axis 0 0 0   XYZ
    dof rx ry rz
    limits (-20.0 45.0)
           (-30.0 30.0)
           (-30.0 30.0)
  end
  begin
     id 17 
     name lclavicle
     direction 0.946135 0.322134 -0.0325326  
     length 3.949  
     axis 0 0 0   XYZ
    dof ry rz
    limits (-20.0 10.0)
           (0.0 20.0)
  end
  begin
     id 18 
     name lhumerus
     direction 1 -4.48964e-011 1.94005e-028   
     length 5.10995   
     axis 180 -30 -90   XYZ
    dof rx ry rz
    limits (-60.0 90.0)
           (-90.0 90.0)
           (-90.0 90.0)
  end
  begin
     id 19
     name lradius
     direction 1 -4.48976e-011 2.87852e-027   
     length 3.21207   
     axis 180 -30 -90   XYZ
    dof rx
    limits (-10.0 170.0)
  end
  begin
     id 20
     name lwrist
     direction 1 -4.48963e-011 1.9975e-027   
     length 1.60604   
     axis 2.96054e-016 90 90   XYZ
    dof ry
    limits (-180.0 0.0)
 end
  begin
     id 21 
     name lhand
     direction 1 -4.48919e-011 4.00227e-027   
     length 0.63349   
     axis -2.5488e-015 90 90   XYZ
    dof rx rz
    limits (-90.0 90.0)
           (-45.0 45.0)
  end
  begin
     id 22 
     name lfingers
     direction 1 -4.49037e-011 7.9652e-027   
     length 0.510736   
     axis -5.0975e-015 90 90   XYZ
    dof rx
    limits (0.0 90.0)
  end
  begin
     id 23
     name lthumb
     direction 0.707107 -6.34922e-011 0.707107   
     length 0.733318   
     axis -90 45 -4.48553e-014   XYZ
    dof rx rz
    limits (-45.0 45.0)
           (-45.0 45.0)
  end
  begin
     id 24 
     name rclavicle
     direction -0.940085 0.328911 -0.0897654   
     length 3.93848  
     axis 0 0 0   XYZ 
    dof ry rz
    limits (-10.0 20.0)
           (-20.0 0.0)
  end
  begin
     id 25 
     name rhumerus
     direction -1 -4.48958e-011 3.02044e-027  
     length 5.25109   
     axis 180 30 90   XYZ
    dof rx ry rz
    limits (-90.0 60.0)
           (-90.0 90.0)
           (-90.0 90.0)
  end
  begin
     id 26 
     name rradius
     direction -1 -4.4897e-011 9.78352e-028   
     length 3.28364   
     axis 180 30 90   XYZ
    dof rx
    limits (-10.0 170.0)
  end
  begin
     id 27 
     name rwrist
     direction -1 -4.48943e-011 1.99918e-027   
     length 1.64182   
     axis 2.96054e-016 -90 -90   XYZ
    dof ry
    limits (-180.0 0.0)
  end
  begin
     id 28
     name rhand
     direction -1 -4.49024e-011 3.98478e-027   
     length 0.599745   
     axis -2.5488e-015 -90 -90   XYZ
    dof rx rz
    limits (-90.0 90.0)
           (-45.0 45.0)
  end
  begin
     id 29
     name rfingers
     direction -1 -4.48914e-011 8.00621e-027   
     length 0.48353   
     axis -5.0975e-015 -90 -90   XYZ
    dof rx
    limits (0.0 90.0)
  end
  begin
     id 30
     name rthumb
     direction -0.707107 -6.34992e-011 0.707107   
     length 0.694255   
     axis -90 -45 4.48553e-014   XYZ
    dof rx rz
    limits (-45.0 45.0)
           (-45.0 45.0)
  end
:hierarchy
  begin
    root lhipjoint rhipjoint lowerback
    lhipjoint lfemur
    lfemur ltibia
    ltibia lfoot
    lfoot ltoes
    rhipjoint rfemur
    rfemur rtibia
    rtibia rfoot
    rfoot rtoes
    lowerback upperback
    upperback thorax
    thorax lowerneck lclavicle rclavicle
    lowerneck upperneck
    upperneck head
    lclavicle lhumerus
    lhumerus lradius
    lradius lwrist
    lwrist lhand lthumb
    lhand lfingers
    rclavicle rhumerus
    rhumerus rradius
    rradius rwrist
    rwrist rhand rthumb
    rhand rfingers
  end

#!OML:ASF E:\CV Data\Top Level 1\Subject 1\Session 1\player.ASF
:FULLY-SPECIFIED
:DEGREES
197
root 10.0134 16.581 -9.81123 -150.026 -97.7403 -199.944
lowerback 21.7294 1.10985 2.78355
upperback 4.8036 1.912 2.06435
thorax -6.8582 0.753365 0.146322
lowerneck -17.866 15.1145 -3.78226
upperneck 5.49802 21.394 -4.00243
head 4.48454 10.1573 1.18419
rclavicle 2.38542e-015 -1.82882e-014
rhumerus -24.6937 -12.862 -71.4365
rradius 128.383
rwrist -18.7768
rhand -37.0145 10.7344
rfingers 7.12502
rthumb -10.0886 -19.0038
lclavicle 2.38542e-015 -1.82882e-014
lhumerus -12.0544 -38.0929 102.619
lradius 66.1132
lwrist -12.6422
lhand -20.5078 -3.30503
lfingers 7.12502
lthumb 5.84957 26.5942
rfemur -36.9549 -9.19967 21.8989
rtibia 54.902
rfoot -25.3311 -11.5627
rtoes -3.1169
lfemur -34.5013 3.47876 -1.344
ltibia 38.794
lfoot -11.0311 -3.37593
ltoes -11.5915
198
root 9.99979 16.5706 -9.80799 -150.645 -97.9959 -199.359
lowerback 21.7231 1.16555 2.93632
upperback 4.85086 2.0112 2.02661
thorax -6.79447 0.798873 -0.00750025
lowerneck -17.9336 14.9661 -3.81908
upperneck 5.39778 21.1904 -3.93032
head 4.45189 10.065 1.19069
rclavicle 1.31198e-014 -1.98785e-014
rhumerus -25.0252 -11.9386 -72.1942
rradius 127.497
rwrist -18.1512
rhand -37.1918 10.3828
rfingers 7.12502
rthumb -10.2596 -19.347
lclavicle 1.31198e-014 -1.98785e-014
lhumerus -13.2762 -37.0167 102.786
lradius 66.7153
lwrist -12.6214
lhand -19.0393 -3.15996
lfingers 7.12502
lthumb 7.26723 26.6953
rfemur -36.8921 -9.30569 21.9041
rtibia 55.05
rfoot -25.4995 -11.7675
rtoes -3.03449
lfemur -34.7194 3.39583 -1.33472
ltibia 39.1488
lfoot -11.1131 -3.53993
ltoes -11.658
199
root 9.98548 16.5596 -9.80508 -151.309 -98.3003 -198.727
lowerback 21.6972 1.22163 3.08808
upperback 4.9018 2.11137 2.01251
thorax -6.7167 0.845415 -0.134787
lowerneck -18.0036 14.8177 -3.841
upperneck 5.31072 20.9888 -3.89249
head 4.42949 9.97049 1.18752
rclavicle -3.33958e-014 -3.02153e-014
rhumerus -25.2754 -11.0101 -72.9705
rradius 126.512
rwrist -17.3912
rhand -37.3331 9.95396
rfingers 7.12502
rthumb -10.396 -19.769
lclavicle -3.33958e-014 -3.02153e-014
lhumerus -14.4978 -35.9366 102.9
lradius 67.2959
lwrist -12.5817
lhand -17.5454 -3.06209
lfingers 7.12502
lthumb 8.70909 26.7382
rfemur -36.8222 -9.40743 21.9133
rtibia 55.1995
rfoot -25.6821 -12.0062
rtoes -2.89722
lfemur -34.9854 3.37454 -1.3415
ltibia 39.5478
lfoot -11.1786 -3.78834
ltoes -11.7949
200
root 9.9705 16.5483 -9.80264 -151.976 -98.6535 -198.092
lowerback 21.6622 1.28735 3.22988
upperback 4.95383 2.22375 2.03174
thorax -6.634 0.898369 -0.223131
lowerneck -18.0781 14.6642 -3.85631
upperneck 5.24008 20.7844 -3.88781
head 4.4176 9.87123 1.17571
rclavicle -2.26615e-014 -2.5842e-014
rhumerus -25.4303 -10.0837 -73.7366
rradius 125.45
rwrist -16.6216
rhand -37.457 9.47387
rfingers 7.12502
rthumb -10.5155 -20.2431
lclavicle -2.26615e-014 -2.5842e-014
lhumerus -15.723 -34.8727 102.982
lradius 67.8597
lwrist -12.5172
lhand -16.0162 -3.03099
lfingers 7.12502
lthumb 10.1845 26.7025
rfemur -36.7395 -9.50064 21.9316
rtibia 55.3454
rfoot -25.8727 -12.2833
rtoes -2.72724
lfemur -35.3019 3.40169 -1.35529
ltibia 40.0032
lfoot -11.2171 -4.11213
ltoes -11.9543
201
root 9.95384 16.5372 -9.80226 -152.357 -98.9656 -197.771
lowerback 21.647 1.40904 3.30299
upperback 5.01476 2.39634 2.09693
thorax -6.55508 0.981057 -0.238746
lowerneck -18.1588 14.5063 -3.87039
upperneck 5.18833 20.5798 -3.9189
head 4.41692 9.76808 1.15552
rclavicle -1.59028e-015 1.82882e-014
rhumerus -25.4649 -9.14555 -74.4728
rradius 124.339
rwrist -15.9981
rhand -37.5337 8.97541
rfingers 7.12502
rthumb -10.5895 -20.7378
lclavicle -1.59028e-015 1.82882e-014
lhumerus -16.9625 -33.8449 103.036
lradius 68.4256
lwrist -12.4363
lhand -14.4997 -3.07285
lfingers 7.12502
lthumb 11.6473 26.5834
rfemur -36.6156 -9.49186 21.9635
rtibia 55.4805
rfoot -26.0657 -12.5946
rtoes -2.52089
lfemur -35.6053 3.56309 -1.36536
ltibia 40.5294
lfoot -11.2335 -4.51586
ltoes -12.1091
202
root 9.93596 16.5261 -9.80241 -152.598 -99.2903 -197.596
lowerback 21.63 1.5567 3.34898
upperback 5.07429 2.59933 2.20186
thorax -6.47925 1.07879 -0.203735
lowerneck -18.2483 14.3429 -3.88191
upperneck 5.15757 20.3725 -3.97905
head 4.42778 9.66017 1.12858
rclavicle -2.5842e-014 3.18055e-014
rhumerus -25.3658 -8.1902 -75.1692
rradius 123.21
rwrist -15.6336
rhand -37.5368 8.48604
rfingers 7.12502
rthumb -10.5925 -21.227
lclavicle -2.5842e-014 3.18055e-014
lhumerus -18.2413 -32.9267 103.068
lradius 69.0338
lwrist -12.206
lhand -13.215 -3.02322
lfingers 7.12502
lthumb 12.886 26.559
rfemur -36.477 -9.44527 22.0143
rtibia 55.605
rfoot -26.2559 -12.9337
rtoes -2.28715
lfemur -35.9609 3.8015 -1.36986
ltibia 41.1432
lfoot -11.2023 -5.00843
ltoes -12.2026
203
root 9.91723 16.5152 -9.80365 -152.704 -99.6235 -197.563
lowerback 21.6265 1.73315 3.3637
upperback 5.12985 2.8362 2.34624
thorax -6.41819 1.19296 -0.117466
lowerneck -18.3417 14.1636 -3.92094
upperneck 5.13707 20.1518 -4.04418
head 4.44049 9.54409 1.10299
rclavicle -4.37326e-014 7.15625e-015
rhumerus -25.127 -7.2127 -75.8102
rradius 122.084
rwrist -15.5563
rhand -37.4514 7.98453
rfingers 7.12502
rthumb -10.5101 -21.7327
lclavicle -4.37326e-014 7.15625e-015
lhumerus -19.5631 -32.0762 103.105
lradius 69.6908
lwrist -11.921
lhand -12.1056 -2.92792
lfingers 7.12502
lthumb 13.9552 26.5837
rfemur -36.3196 -9.36344 22.0893
rtibia 55.7184
rfoot -26.4338 -13.3105
rtoes -2.08603
lfemur -36.3726 4.10587 -1.36092
ltibia 41.8569
lfoot -11.1085 -5.59085
ltoes -12.2544
